<svg width="219" height="153" viewBox="0 0 219 153" fill="none" xmlns="http://www.w3.org/2000/svg">
<g clip-path="url(#clip0_2_500)">
<path d="M124.91 79.3398C121.38 77.7798 118.35 75.5998 115.44 73.0498C113.77 76.5198 111.82 79.7298 109.1 82.4898C106.53 79.6798 104.49 76.5798 102.82 73.0798C99.9097 75.5998 96.8797 77.8098 93.3497 79.3398C91.9897 75.8098 91.3597 72.1398 91.0997 68.3198C87.4997 69.5498 83.8597 70.4098 79.9597 70.4398C80.0597 66.5698 80.8697 62.9298 82.0797 59.3998C80.1997 59.1298 78.3297 58.9298 76.4897 58.5798C74.6697 58.2298 72.9097 57.6898 71.0397 57.1998C72.6197 53.5698 74.7897 50.5198 77.3697 47.5898C73.8897 45.9698 70.7597 43.9198 67.9297 41.2998C70.7197 38.6398 73.8897 36.6198 77.2897 35.0398C76.0997 33.4598 74.8797 32.0098 73.8397 30.4498C72.8097 28.8998 71.9597 27.2498 70.9597 25.5498C74.5897 24.1398 78.2497 23.4798 82.0797 23.2798C80.8697 19.6798 80.0397 16.0398 79.9297 12.1598C83.8197 12.1598 87.4397 13.0398 91.0697 14.2598C91.3397 10.4698 91.9497 6.80977 93.3197 3.23977C96.8197 4.76977 99.8797 6.92977 102.71 9.44977C103.7 7.74977 104.56 6.07977 105.59 4.54977C106.62 2.99977 107.81 1.56977 109.01 0.00976562C111.8 2.83977 113.77 6.02977 115.39 9.42977C116.92 8.26977 118.39 7.06977 119.93 6.00977C121.48 4.96977 123.14 4.08977 124.83 3.07977C126.29 6.77977 126.9 10.4498 127.14 14.2398C130.81 13.0298 134.43 12.1398 138.28 12.1398C138.21 15.9898 137.35 19.6298 136.14 23.2598C139.96 23.4998 143.59 24.1198 147.15 25.4998C145.62 29.0498 143.43 32.0598 140.89 34.9598C144.32 36.6798 147.5 38.5898 150.25 41.2698C148.92 42.6798 147.42 43.8098 145.82 44.7898C144.24 45.7698 142.64 46.6898 140.97 47.6798C143.38 50.5098 145.6 53.4998 147.13 57.0498C143.6 58.4498 139.96 59.0398 136.12 59.2898C137.35 62.8898 138.17 66.5298 138.26 70.4098C134.44 70.4298 130.82 69.5298 127.12 68.2898C126.88 72.0598 126.28 75.7098 124.88 79.3298L124.93 79.3498L124.91 79.3398ZM85.4797 41.2298C85.2397 41.0998 85.0297 40.9298 84.7697 40.7898C82.6997 39.7298 80.8797 38.3298 79.2197 36.7298C78.7297 36.2798 78.3597 36.2398 77.8597 36.5298C76.3597 37.3898 74.8497 38.2098 73.3697 39.1198C72.3597 39.7398 71.3997 40.4798 70.4297 41.1698C70.5297 41.3198 70.5597 41.3898 70.6197 41.4198C72.9597 43.2498 75.4197 44.8498 78.1297 46.0598C78.5797 46.2598 78.7997 46.1798 79.1397 45.8698C79.8497 45.2098 80.5697 44.5698 81.3597 43.9998C82.7097 43.0198 84.0997 42.1298 85.5197 41.1698L85.4997 41.1998L85.4797 41.2298ZM109.13 2.53977C107.03 5.07977 105.41 7.81977 104.18 10.5498C105.91 12.9398 107.58 15.2398 109.25 17.5498C109.33 17.4198 109.44 17.2298 109.54 17.0498C110.65 14.9598 112.03 13.0598 113.66 11.3798C114.11 10.9098 114.13 10.5398 113.86 9.99977C112.56 7.36977 111.08 4.89977 109.11 2.54977H109.13V2.53977ZM104.18 72.0198C105.46 74.7598 107.02 77.5398 109.18 80.0298C109.77 79.2398 110.34 78.5998 110.78 77.8798C111.87 76.0998 112.92 74.2598 113.94 72.4398C114.13 72.1198 114.23 71.7698 113.84 71.3798C112.33 69.8498 111.06 68.1198 109.99 66.2498C109.74 65.8098 109.47 65.3698 109.27 65.0198C107.59 67.3398 105.94 69.6098 104.2 72.0198H104.18ZM132.77 41.3798C135.18 42.5698 137.38 44.2598 139.47 46.1298C139.59 46.2298 139.92 46.2298 140.09 46.1298C141.23 45.5698 142.4 45.0398 143.47 44.3598C144.98 43.4198 146.43 42.3698 147.98 41.3298C145.51 39.2898 142.93 37.7498 140.21 36.4298C139.79 36.2298 139.55 36.2998 139.25 36.5998C138.83 37.0198 138.39 37.4198 137.92 37.7798C136.24 38.9698 134.52 40.1498 132.8 41.3498L132.77 41.3798ZM100.09 19.3498C100.17 18.9598 100.26 18.6398 100.29 18.3198C100.49 16.0798 101.08 13.9398 101.85 11.8598C102.05 11.3398 102.04 10.9798 101.6 10.6498C100.09 9.46976 98.5697 8.25977 97.0197 7.12977C96.1797 6.51977 95.2497 6.03977 94.2597 5.40977C94.0197 6.34977 93.7597 7.12977 93.6397 7.92977C93.3197 10.0698 93.0497 12.1998 92.7597 14.3398C92.7097 14.7598 92.9097 14.9598 93.2497 15.1598C94.8697 16.0498 96.4997 16.9598 98.0797 17.8998C98.7497 18.2998 99.3597 18.8098 100.07 19.3098L100.09 19.3298V19.3498ZM118.16 19.3498C118.45 19.1598 118.63 19.0598 118.8 18.9298C120.65 17.3998 122.7 16.1898 124.91 15.2098C125.53 14.9398 125.6 14.5698 125.53 14.0298C125.36 12.5998 125.23 11.1498 124.99 9.73977C124.75 8.32977 124.38 6.94977 124.05 5.42977C123.53 5.71977 123.09 5.92977 122.69 6.18977C120.45 7.53977 118.31 9.02977 116.46 10.8998C116.33 11.0498 116.22 11.3898 116.29 11.5698C117.06 13.5598 117.6 15.5898 117.87 17.6998C117.94 18.2198 118.04 18.7398 118.14 19.3298L118.16 19.3498ZM124.02 77.1698C124.34 75.7898 124.66 74.6498 124.86 73.4698C125.13 71.8198 125.33 70.1398 125.53 68.4698C125.6 67.9798 125.53 67.6098 124.94 67.3398C123.69 66.7998 122.5 66.1498 121.34 65.4398C120.26 64.7798 119.27 63.9898 118.19 63.2498C118.12 63.4498 118.02 63.6198 118 63.7898C117.8 66.2498 117.23 68.5998 116.3 70.8898C116.17 71.2298 116.22 71.4998 116.52 71.7498C117.82 72.7898 119.08 73.8998 120.41 74.8798C121.5 75.6898 122.72 76.3598 124.01 77.1898V77.1698H124.02ZM94.2497 77.0998C94.7397 76.8298 95.0697 76.6498 95.3897 76.4598C97.6597 75.1498 99.7097 73.5698 101.67 71.8298C102.04 71.4898 102.02 71.1898 101.89 70.7198C101.37 68.8998 100.9 67.0698 100.44 65.2298C100.27 64.5698 100.2 63.8798 100.09 63.1398C99.9197 63.2398 99.8397 63.2898 99.7697 63.3398C97.9197 64.9398 95.8497 66.2198 93.6097 67.1898C92.8997 67.4898 92.6697 67.8598 92.7697 68.5698C93.0197 70.3998 93.2397 72.2598 93.5397 74.0698C93.6897 75.0498 93.9897 76.0098 94.2597 77.0698L94.2397 77.0898L94.2497 77.0998ZM131.05 50.2598C131.13 50.4498 131.15 50.5798 131.24 50.6798C132.92 52.6298 134.17 54.8698 135.28 57.1898C135.43 57.5098 135.62 57.6598 135.99 57.6298C137.39 57.4998 138.78 57.4298 140.16 57.2098C141.56 56.9898 142.92 56.6198 144.3 56.3498C144.84 56.2498 144.87 55.9798 144.62 55.5598C144.35 55.1098 144.12 54.6298 143.8 54.2098C142.42 52.3598 141.01 50.5098 139.58 48.6898C139.45 48.5198 139.06 48.3898 138.87 48.4498C136.36 49.3898 133.8 50.0298 131.06 50.2698V50.2498L131.05 50.2598ZM87.2197 32.3098C87.1897 32.1898 87.1897 32.1598 87.1497 32.1198C85.5297 30.0198 84.0197 27.8298 83.0297 25.3598C82.8997 25.0098 82.6397 24.9098 82.3097 24.9598C80.2697 25.1998 78.2197 25.4098 76.1997 25.6998C75.2597 25.8298 74.3497 26.1398 73.3397 26.3898C73.5597 26.7798 73.7297 27.0498 73.8797 27.3298C75.2097 29.6998 76.8197 31.8398 78.6597 33.8298C78.9597 34.1498 79.2297 34.1998 79.6397 34.0498C82.0797 33.0898 84.5897 32.4998 87.2497 32.2998L87.2297 32.3198L87.2197 32.3098ZM130.97 32.2898C133.33 32.4898 135.48 32.8598 137.5 33.6898C138.73 34.1898 139.55 34.1598 140.46 32.9698C141.91 31.0498 143.37 29.1498 144.58 27.0598C144.85 26.6098 144.82 26.3698 144.26 26.2198C141.62 25.5298 138.94 25.0098 136.2 24.9398C135.61 24.9398 135.38 25.1598 135.11 25.6298C134.13 27.3798 133.09 29.1098 132.06 30.8298C131.76 31.3198 131.37 31.7598 130.95 32.3098L130.97 32.2898ZM87.0797 50.2298C87.1597 50.2798 87.0997 50.2298 87.0297 50.2098C84.5697 50.0598 82.1997 49.4898 79.9097 48.5898C79.2497 48.3398 78.7997 48.3998 78.3997 48.9598C78.1797 49.2598 77.9297 49.5298 77.6797 49.8198C76.0797 51.6198 74.7497 53.6398 73.5397 55.7298C73.3897 55.9998 73.3697 56.1998 73.7797 56.2898C74.4197 56.4198 75.0397 56.6398 75.6797 56.7398C77.5597 57.0398 79.4697 57.3098 81.3697 57.5998C82.3997 57.7498 82.9297 57.4098 83.4397 56.3898C84.4997 54.2698 85.8497 52.2798 87.0897 50.2298H87.0797ZM127.38 66.4998C130.17 67.5798 133.22 68.3298 136.47 68.6498C136.17 65.2998 135.39 62.2398 134.22 59.2298C131.34 59.3298 128.62 58.7398 126.03 58.0498C126.48 60.8398 126.92 63.5898 127.38 66.4998ZM127.2 16.1198C127.05 18.9598 126.73 21.7398 125.8 24.5698C128.64 23.7498 131.39 23.2398 134.23 23.3098C135.39 20.2998 136.2 17.2198 136.45 14.0198C135.46 13.7998 130.61 14.7598 127.19 16.1198H127.2ZM81.6297 68.6198C82.0197 68.6198 82.2397 68.6498 82.4497 68.6198C85.1897 68.1998 87.8897 67.6298 90.4897 66.6498C90.9597 66.4798 91.1097 66.2598 91.1597 65.7598C91.2797 64.2798 91.4497 62.7998 91.6597 61.3298C91.8297 60.2398 92.1097 59.1798 92.3697 58.0798C92.3197 58.0798 92.2497 58.0298 92.1797 58.0498C92.0297 58.0798 91.8897 58.1198 91.7397 58.1698C89.4297 58.7898 87.1097 59.2998 84.7097 59.2298C84.1397 59.2298 83.8997 59.4698 83.7697 59.9198C83.4797 60.8298 83.1497 61.7398 82.9297 62.6798C82.4797 64.6198 82.0897 66.5798 81.6297 68.6398L81.6097 68.6198H81.6297ZM81.7097 13.8698C81.7797 14.2698 81.8397 14.4798 81.8597 14.6898C82.1797 17.4498 82.8397 20.1298 83.8097 22.7298C83.9797 23.1798 84.1797 23.3398 84.6497 23.3198C86.6697 23.2698 88.6497 23.6198 90.6097 24.0898C91.1797 24.2198 91.7697 24.3798 92.3097 24.5098C92.0197 23.1298 91.6997 21.8498 91.5197 20.5398C91.3197 19.2298 91.2697 17.8798 91.0797 16.5698C91.0497 16.3298 90.7297 16.0098 90.4697 15.9498C88.5997 15.3898 86.7197 14.8398 84.8197 14.3698C83.8397 14.1298 82.8197 14.0498 81.6897 13.8798L81.7097 13.8598V13.8698ZM137.95 35.5698C137.71 35.4498 137.6 35.3698 137.46 35.3198C135.29 34.5598 133.05 34.0898 130.78 33.8598C129.96 33.7798 129.25 33.8898 128.59 34.5998C127.85 35.3898 126.92 36.0098 126.02 36.6398C124.96 37.3498 123.85 37.9698 122.76 38.6298C123.18 38.7598 123.6 38.6798 123.99 38.7598C126.08 39.2298 128.13 39.7498 130.22 40.2098C130.54 40.2798 130.94 40.2798 131.21 40.1398C132.66 39.3298 134.1 38.5098 135.48 37.5998C136.36 37.0298 137.11 36.2898 137.97 35.5798H137.95V35.5698ZM101.22 29.5798C101.22 29.5798 101.32 29.5298 101.37 29.4998C101.34 29.3298 101.3 29.1498 101.25 28.9798C100.69 26.8898 100.17 24.7898 100.16 22.5998C100.16 22.1798 99.9697 21.6598 99.6697 21.3898C98.0197 19.8398 96.1397 18.5998 94.1497 17.5198C93.7497 17.2998 93.3097 17.1298 92.7197 16.8598C92.7997 17.5198 92.8897 17.9698 92.9097 18.4198C93.0097 20.6398 93.5797 22.7598 94.3097 24.8498C94.4097 25.1398 94.6997 25.4098 94.9697 25.5698C96.5897 26.5598 98.2297 27.5098 99.8497 28.5098C100.34 28.8098 100.76 29.2198 101.23 29.5698L101.22 29.5798ZM133.49 57.6798C133.44 57.4398 133.42 57.3598 133.39 57.2898C132.26 54.8498 130.78 52.6498 128.96 50.6598C128.77 50.4598 128.44 50.3698 128.15 50.3398C126.64 50.1198 125.12 49.9498 123.62 49.6998C122.69 49.5498 121.79 49.2598 120.69 48.9898C121.09 49.5298 121.4 49.8798 121.67 50.2898C122.7 51.9198 123.76 53.5198 124.68 55.1998C124.98 55.7598 125.27 56.1298 125.86 56.2798C127.22 56.6298 128.59 57.0398 129.97 57.3098C131.1 57.5298 132.26 57.5598 133.49 57.6998V57.6798ZM138.02 47.1298C137.78 46.8598 137.7 46.7398 137.6 46.6798C135.97 45.4998 134.34 44.3198 132.7 43.1798C131.51 42.3398 130.29 42.1398 128.85 42.7398C127.74 43.1898 126.49 43.3498 125.3 43.5598C124.46 43.7298 123.6 43.8098 122.67 43.9298C122.82 44.0298 122.91 44.0998 123.01 44.1498C125.26 45.3098 127.35 46.6898 129.19 48.4598C129.36 48.6098 129.66 48.7098 129.9 48.6998C131.09 48.5998 132.31 48.5298 133.47 48.2998C134.95 47.9998 136.41 47.5598 138.03 47.1598V47.1398L138.02 47.1298ZM101.4 52.9398C101.15 53.0398 101.08 53.0398 101.03 53.0698C99.1797 54.6898 97.1097 55.9298 94.8997 56.9898C94.6497 57.1098 94.3597 57.4098 94.2897 57.6798C93.7997 59.5498 93.3097 61.4298 92.9097 63.3198C92.7597 64.0298 92.7897 64.7798 92.7397 65.6398C93.0897 65.5098 93.3297 65.4498 93.5097 65.3398C95.2597 64.2298 97.0297 63.1398 98.7297 61.9598C99.5197 61.3998 100.18 60.7698 100.19 59.5698C100.19 58.1898 100.53 56.8098 100.76 55.4298C100.89 54.6198 101.15 53.8498 101.37 52.9398H101.39H101.4ZM125.57 16.8098C122.83 18.1098 120.42 19.5998 118.38 21.6398C118.23 21.7898 118.18 22.0898 118.14 22.3498C117.92 23.9298 117.74 25.5098 117.48 27.0798C117.35 27.9398 117.06 28.7798 116.82 29.7598C117.19 29.4698 117.48 29.2698 117.75 29.0498C119.48 27.6698 121.33 26.4798 123.37 25.5698C123.61 25.4698 123.86 25.1798 123.94 24.9498C124.36 23.5198 124.82 22.0698 125.12 20.6098C125.37 19.4198 125.42 18.1898 125.57 16.8198H125.55L125.57 16.8098ZM125.55 65.7298C125.45 64.8198 125.35 64.0098 125.28 63.2198C125.13 61.2498 124.54 59.3798 123.92 57.5198C123.87 57.3498 123.65 57.1998 123.48 57.0998C121.92 56.1598 120.32 55.2298 118.77 54.2698C118.11 53.8698 117.54 53.3598 116.89 52.8898C116.86 53.0198 116.84 53.0798 116.86 53.1098C117.65 55.4798 118.12 57.9198 118.17 60.4298C118.17 60.6198 118.3 60.8498 118.44 60.9898C119.05 61.5598 119.67 62.1198 120.32 62.6198C121.9 63.8298 123.6 64.8598 125.55 65.7298ZM133.59 25.1398C133.59 25.1398 133.44 24.9698 133.37 24.8998C132.76 24.9698 132.16 25.0298 131.55 25.0698C129.46 25.1998 127.48 25.7398 125.51 26.4198C125.27 26.4998 124.97 26.7098 124.89 26.9198C123.93 29.1598 122.6 31.1398 121.07 33.0098C120.97 33.1398 120.92 33.3098 120.8 33.5798C123.37 32.7698 125.85 32.3298 128.39 32.1998C128.64 32.1998 128.95 31.9298 129.13 31.7298C129.67 31.1098 130.22 30.4698 130.68 29.7798C131.69 28.2698 132.63 26.6998 133.59 25.1498V25.1298V25.1398ZM84.8297 24.9598C84.9297 25.2598 84.9797 25.4798 85.0697 25.6698C86.0997 27.7598 87.3897 29.6698 88.9097 31.4598C89.3297 31.9498 89.7997 32.2498 90.5297 32.2698C91.7097 32.2998 92.8697 32.5198 94.0297 32.7198C95.1697 32.9398 96.2997 33.2398 97.5097 33.5298C97.4297 33.3998 97.4097 33.3098 97.3397 33.2398C95.9097 31.4898 94.5997 29.6398 93.7097 27.5498C93.2897 26.5598 92.4997 26.2898 91.6397 26.0198C91.3897 25.9498 91.1397 25.8898 90.8797 25.8198C88.9297 25.2998 86.9597 24.9298 84.8197 24.9398L84.8397 24.9598H84.8297ZM106.45 54.9398C106.45 54.9398 106.35 54.9698 106.33 54.9898C105.19 57.2298 103.81 59.2998 102.12 61.1698C101.85 61.4598 101.67 61.9398 101.68 62.3298C101.73 63.3598 101.85 64.3798 102.07 65.3798C102.41 66.9298 102.84 68.4398 103.26 70.0598C103.51 69.8898 103.63 69.8398 103.71 69.7598C105.51 67.7198 107.01 65.4998 108.1 63.0298C108.17 62.8598 108.15 62.6298 108.1 62.4198C107.76 61.1698 107.34 59.9598 107.06 58.7198C106.78 57.4798 106.64 56.2098 106.42 54.9498H106.44L106.45 54.9398ZM106.48 27.6298C106.55 27.2098 106.63 26.8098 106.67 26.3798C106.87 24.2398 107.36 22.1698 108.1 20.1498C108.18 19.9298 108.18 19.6298 108.1 19.4298C107.17 17.3798 106 15.4898 104.58 13.7598C104.23 13.3398 103.82 12.9498 103.39 12.4598C103.1 13.3398 102.78 14.0598 102.63 14.8298C102.31 16.4298 102.16 18.0598 101.79 19.6398C101.57 20.5798 101.91 21.1498 102.51 21.7898C103.13 22.4598 103.7 23.1898 104.21 23.9598C105 25.1398 105.72 26.3498 106.5 27.6098H106.48V27.6298ZM84.7297 57.5698C85.0997 57.5898 85.2897 57.5998 85.4497 57.5998C87.7597 57.4998 89.9797 57.0298 92.1797 56.3498C92.8997 56.1298 93.3597 55.7298 93.7097 55.0198C94.3997 53.6398 95.2397 52.3298 96.0697 51.0198C96.4897 50.3498 97.0097 49.7398 97.5797 48.9798C97.0797 49.1098 96.7397 49.1798 96.4197 49.2798C94.3697 49.8998 92.2497 50.1898 90.1097 50.3598C89.8397 50.3798 89.4997 50.5298 89.3197 50.7098C87.9397 52.1398 86.8097 53.7398 85.8497 55.4598C85.4797 56.1198 85.1397 56.7898 84.7197 57.5798V57.5598L84.7297 57.5698ZM80.3797 46.8498C80.3797 46.8498 80.4297 46.9998 80.4597 47.0898C80.9497 47.2598 81.4397 47.4898 81.9397 47.6098C83.8097 47.9998 85.6897 48.3798 87.5797 48.6998C88.0997 48.7798 88.6397 48.8198 89.1797 48.3598C90.5097 47.2498 91.9097 46.2398 93.3197 45.2498C94.0297 44.7598 94.8197 44.3898 95.5597 43.9698C95.1397 43.8398 94.7397 43.8998 94.3697 43.8198C92.2497 43.3498 90.1297 42.8398 88.0097 42.3698C87.7597 42.3198 87.4397 42.2898 87.2197 42.3898C86.2097 42.8898 85.1697 43.3798 84.2197 44.0198C82.8897 44.8998 81.6597 45.8998 80.3797 46.8498ZM80.4497 35.4398V35.6598C80.7997 35.9598 81.1597 36.2498 81.4897 36.5498C83.2197 38.0498 85.1397 39.2598 87.2297 40.1798C87.4297 40.2798 87.7297 40.2598 87.9697 40.2098C89.2197 39.9098 90.4397 39.5198 91.7097 39.2298C92.9397 38.9598 94.1797 38.8098 95.4797 38.5898C95.3797 38.5098 95.2897 38.3998 95.1897 38.3498C93.1397 37.2898 91.1997 36.0598 89.5397 34.4498C88.9497 33.8798 88.2397 33.7398 87.4897 33.8598C86.1897 34.0598 84.8997 34.2498 83.6397 34.5298C82.5597 34.7698 81.5197 35.1398 80.4597 35.4398V35.4198L80.4497 35.4398ZM111.78 27.5298C111.9 27.4598 111.95 27.4498 111.97 27.4098C113.08 25.3598 114.31 23.4098 115.89 21.6698C116.23 21.3198 116.61 20.9298 116.51 20.2898C116.24 18.6098 116.06 16.9198 115.75 15.2398C115.58 14.3298 115.23 13.4698 114.94 12.5798C114.84 12.5298 114.72 12.4598 114.62 12.4098C114.47 12.6598 114.35 12.9298 114.17 13.1498C112.67 14.9798 111.33 16.9198 110.28 19.0698C110.06 19.5198 110.08 19.8898 110.21 20.3698C110.66 22.1398 111.09 23.9198 111.49 25.6998C111.62 26.2898 111.68 26.8798 111.78 27.4998V27.5198V27.5298ZM111.75 54.9798C111.7 55.5198 111.72 55.9898 111.62 56.4298C111.15 58.4198 110.64 60.3998 110.19 62.3898C110.12 62.6798 110.12 63.0598 110.26 63.2998C111.15 64.8498 112.04 66.4098 113.02 67.9098C113.51 68.6698 114.16 69.3098 114.8 70.0498C114.93 69.8298 115 69.7498 115.04 69.6498C115.8 67.6498 116.27 65.5598 116.49 63.4198C116.57 62.5798 116.79 61.6498 115.99 60.9298C115.49 60.4798 115.05 59.9398 114.68 59.3798C113.72 57.9798 112.81 56.5398 111.79 54.9898H111.77L111.75 54.9798ZM112.53 41.3098C112.53 39.4098 110.98 37.7898 109.1 37.8598C106.96 37.9398 105.89 39.3698 105.7 41.2598C105.53 43.0298 107.33 44.7298 109.18 44.7298C111.03 44.7298 112.55 43.1298 112.55 41.3098H112.53ZM95.7297 27.7298C96.5497 30.7098 102.02 36.1898 104.8 36.8198C104.06 35.5898 103.54 34.3098 102.68 33.3498C101.52 32.0398 100.14 30.9298 98.7897 29.8198C97.8797 29.0798 96.8397 28.4898 95.7297 27.7298ZM104.73 45.6198C103.96 46.0398 103.33 46.3798 102.71 46.7298C102.26 46.9798 101.75 47.1998 101.38 47.5498C99.4597 49.3198 97.7497 51.2398 96.3797 53.4598C96.1397 53.8298 95.9397 54.2198 95.7197 54.5898C95.7697 54.6198 95.8397 54.6698 95.8897 54.7098C99.4897 52.3998 102.99 50.0298 104.72 45.6198H104.73ZM113.54 36.8698C117.83 35.1698 120.24 31.6898 122.42 27.9898C118.7 30.1598 115.27 32.6198 113.54 36.8698ZM113.47 45.6698C113.71 46.0898 113.86 46.4298 114.04 46.7298C114.48 47.4898 114.8 48.3498 115.37 48.9798C117.12 50.9298 119.07 52.6498 121.31 54.0298C121.66 54.2498 122.03 54.4298 122.4 54.6398C122.45 54.5898 122.48 54.5198 122.53 54.4698C120.24 50.8698 117.84 47.3898 113.48 45.6498L113.46 45.6698H113.47ZM109.11 47.7398C107.26 51.8098 108.15 55.8798 108.99 60.0398C110.45 58.3598 110.49 49.8298 109.11 47.7398ZM109.24 22.5998C109.24 22.5998 109.07 22.6198 108.99 22.6298C108.15 26.6898 107.29 30.7598 109.16 34.8998C109.21 34.7998 109.28 34.7298 109.31 34.6498C109.81 32.7798 110.52 30.9598 110.17 28.9498C109.93 27.5698 109.92 26.1598 109.73 24.7798C109.63 24.0398 109.41 23.3298 109.24 22.5898V22.6098V22.5998ZM126.42 48.5998C126.39 48.4498 126.39 48.3798 126.37 48.3598C123.32 46.1098 120.14 44.1498 116.27 43.6998C115.82 43.6498 115.36 43.6298 114.84 43.5798C118.07 46.8798 122.16 47.8498 126.43 48.5798L126.41 48.5998H126.42ZM114.85 38.9598C119.41 38.8898 122.96 36.6398 126.39 34.0998C122.15 34.6898 118.08 35.6798 114.85 38.9598ZM102.83 41.2798C100.81 40.5098 98.7397 40.0998 96.5497 40.2198C94.5797 40.3198 91.2697 40.8298 90.2597 41.3598C94.5197 42.3498 98.6897 43.0398 102.83 41.2798ZM115.4 41.3098C117.17 41.8098 118.87 42.5398 120.77 42.3398C121.63 42.2598 122.49 42.3098 123.33 42.1898C124.89 41.9898 126.46 41.6998 128.02 41.4498C128.02 41.3698 128 41.2798 127.99 41.2098C123.8 40.2298 119.61 39.5098 115.39 41.3098H115.41H115.4ZM111.57 35.2998C113.07 33.7998 114.26 32.1498 114.92 30.1198C115.56 28.1498 116.15 26.1798 116.27 24.0798C113.83 27.4598 111.58 30.9098 111.58 35.2998H111.57ZM102.04 24.0998C101.99 25.6498 102.43 27.0998 102.83 28.5598C103.57 31.1898 104.7 33.5598 106.78 35.4898C106.73 31.0298 104.47 27.5298 102.03 24.0998H102.04ZM106.82 46.9498C105.27 48.6698 104.08 50.3298 103.35 52.3698C102.63 54.4398 101.8 57.7198 102.05 58.4398H102.1C104.22 55.5498 106.04 52.5198 106.64 48.9198C106.74 48.3298 106.74 47.7298 106.79 46.9698L106.81 46.9498H106.82ZM116.13 58.5098L116.43 58.4298C116.23 57.4698 116.08 56.5098 115.82 55.5698C115.2 53.2098 114.61 50.8198 113.03 48.8598C112.58 48.2898 112.1 47.7298 111.63 47.1798C111.55 51.6398 113.8 55.0898 116.11 58.4998L116.13 58.5198V58.5098ZM91.9597 33.9698C91.9597 33.9698 91.9097 34.0698 91.8797 34.1198C91.9797 34.2198 92.0697 34.3698 92.1797 34.4398C93.9297 35.4698 95.6497 36.5398 97.4297 37.5198C98.9897 38.3598 100.69 38.8698 102.5 38.8698C102.79 38.8698 103.07 38.9498 103.46 38.9998C100.25 35.6698 96.1397 34.7298 91.9497 33.9698H91.9697H91.9597ZM91.7397 48.4298C91.9797 48.5098 92.0397 48.5598 92.0897 48.5498C94.3597 48.1998 96.5297 47.5598 98.6997 46.7998C100.57 46.1398 101.93 44.8098 103.53 43.5998C98.8997 43.6498 95.3397 45.9098 91.7297 48.4298H91.7397Z" fill="#D7B56D"/>
<path d="M71.6001 129.2V101.11H73.5701V137.29C72.3901 137.64 71.7501 137.34 70.7401 136.1C69.9801 135.16 69.1801 134.27 68.3801 133.34C66.8001 131.54 65.2301 129.74 63.6301 127.94C62.4901 126.64 61.3101 125.35 60.1601 124.05C58.6601 122.35 57.1801 120.63 55.7001 118.93C54.9601 118.09 54.2001 117.26 53.4601 116.42C51.9001 114.64 50.3301 112.85 48.7701 111.07C47.7101 109.86 46.6501 108.66 45.5701 107.47C45.4501 107.35 45.3201 107.25 45.0801 107.05V137.34H43.0801V101.08H46.4601C46.6301 101.08 46.8101 101.27 46.9301 101.4C48.2601 102.9 49.5901 104.4 50.9001 105.89C52.8001 108.04 54.6901 110.21 56.6001 112.39C57.8501 113.79 59.1101 115.17 60.3501 116.56C61.9301 118.34 63.5101 120.16 65.1001 121.96C65.8701 122.84 66.6501 123.69 67.4401 124.57C68.7701 126.07 70.1201 127.55 71.6001 129.2Z" fill="#D7B56D"/>
<path d="M120.01 137.36H118.01V101.08H121.41C121.58 101.08 121.75 101.27 121.88 101.4C123.19 102.88 124.51 104.36 125.8 105.84C127.72 108.01 129.62 110.2 131.54 112.37C132.79 113.77 134.05 115.15 135.29 116.54C136.87 118.32 138.45 120.14 140.04 121.94C141.27 123.32 142.51 124.68 143.74 126.06C144.62 127.04 145.49 128.03 146.47 129.14V101.12H148.49V137.28C147.26 137.62 146.66 137.33 145.65 136.09C144.89 135.15 144.09 134.26 143.29 133.33C141.71 131.53 140.14 129.73 138.54 127.93C137.4 126.63 136.22 125.36 135.07 124.04C133.57 122.34 132.11 120.62 130.61 118.92C129.5 117.66 128.39 116.43 127.28 115.17C125.73 113.4 124.18 111.64 122.64 109.87C121.82 108.94 120.97 108.04 120 106.96V137.35H120.02L120.01 137.36Z" fill="#D7B56D"/>
<path d="M113.89 137.4C112.46 137.4 111.11 137.4 109.77 137.38C109.62 137.38 109.42 137.14 109.33 136.98C108.57 135.33 107.82 133.68 107.08 132.03C106.36 130.43 105.67 128.83 104.91 127.25C104.83 127.06 104.42 126.91 104.17 126.91C100.82 126.89 97.4904 126.91 94.1404 126.91H86.3004C85.7804 126.91 85.4904 126.99 85.2704 127.53C84.0204 130.54 82.7304 133.52 81.4704 136.52C81.2004 137.16 80.9004 137.56 80.1204 137.43C79.7304 137.36 79.3304 137.43 78.8104 137.43C79.2004 136.52 79.5304 135.71 79.8704 134.89C81.1504 131.89 82.4104 128.9 83.7104 125.9C84.7204 123.53 85.7604 121.17 86.7704 118.8C88.1004 115.72 89.4104 112.62 90.7404 109.53C91.8804 106.89 93.0504 104.25 94.1704 101.59C94.3604 101.17 94.5704 101.05 95.0104 101.07C95.8004 101.1 96.6104 101.1 97.4004 101.07C97.7504 101.07 97.9604 101.17 98.1104 101.51C98.8304 103.16 99.5704 104.77 100.3 106.42C101.21 108.51 102.12 110.59 103.03 112.66C104.59 116.23 106.14 119.78 107.71 123.35C108.96 126.18 110.22 128.97 111.46 131.8C112.27 133.63 113.06 135.47 113.9 137.4H113.89ZM94.8704 105.21C92.0604 111.76 89.3004 118.2 86.5204 124.7H103.75C100.79 118.19 97.8404 111.76 94.8704 105.21Z" fill="#D7B56D"/>
<path d="M38.9704 137.401H34.9004C34.7304 137.401 34.5104 137.201 34.4304 137.051C33.4404 134.911 32.4604 132.761 31.4904 130.611C31.0004 129.521 30.5004 128.421 30.0304 127.311C29.8604 126.911 29.5604 126.921 29.2204 126.921H10.6304C9.81039 128.861 8.96039 130.771 8.14039 132.691C7.55039 134.071 6.96039 135.471 6.37039 136.851C6.20039 137.251 5.97039 137.471 5.48039 137.421C5.01039 137.371 4.50039 137.421 3.90039 137.421C4.10039 136.921 4.25039 136.481 4.44039 136.061C6.16039 132.091 7.87039 128.121 9.57039 124.151C11.2204 120.301 12.8504 116.431 14.5004 112.571C15.8004 109.541 17.1304 106.511 18.4404 103.481C18.7304 102.821 19.0004 102.151 19.3204 101.491C19.4004 101.301 19.6704 101.121 19.8804 101.101C20.7704 101.071 21.6504 101.051 22.5404 101.101C22.7604 101.101 23.0604 101.321 23.1604 101.521C23.9304 103.171 24.6704 104.821 25.4004 106.481C26.3104 108.571 27.2204 110.651 28.1304 112.721C29.6604 116.241 31.2104 119.771 32.7604 123.291C33.8004 125.651 34.8604 128.001 35.9104 130.361C36.9204 132.671 37.9304 134.951 38.9904 137.391L38.9704 137.401ZM19.9404 105.211C17.1304 111.741 14.3704 118.201 11.5804 124.701H28.8304C25.8704 118.201 22.9404 111.761 19.9504 105.211H19.9404Z" fill="#D7B56D"/>
<path d="M181.91 137.4C182.26 136.54 182.58 135.78 182.9 135.03C185.14 129.83 187.38 124.63 189.61 119.43C191.78 114.36 193.97 109.3 196.14 104.25C196.54 103.32 196.91 102.38 197.33 101.49C197.41 101.3 197.73 101.1 197.94 101.1C198.78 101.05 199.62 101.1 200.46 101.07C200.86 101.07 201.05 101.22 201.2 101.56C201.92 103.21 202.66 104.84 203.39 106.47C204.3 108.56 205.21 110.64 206.12 112.73C207.67 116.26 209.2 119.78 210.75 123.31C211.81 125.72 212.89 128.11 213.95 130.51C214.94 132.76 215.94 135.02 216.98 137.39H212.81C212.68 137.39 212.49 137.17 212.42 137.02C211.43 134.87 210.47 132.71 209.49 130.56C209 129.47 208.51 128.36 207.99 127.28C207.91 127.09 207.59 126.93 207.38 126.93C201.27 126.91 195.16 126.91 189.05 126.93C188.86 126.93 188.58 127.13 188.51 127.3C187.18 130.36 185.85 133.44 184.56 136.52C184.31 137.11 184.04 137.56 183.26 137.41C182.86 137.34 182.44 137.41 181.9 137.41V137.39L181.91 137.4ZM197.96 105.21C195.17 111.74 192.39 118.18 189.61 124.68H206.82C203.86 118.17 200.91 111.72 197.95 105.21H197.96Z" fill="#D7B56D"/>
<path d="M184.53 101.131V103.231H171.17V137.361H166.88V103.281H153.5V101.141H184.53V101.121V101.131Z" fill="#D7B56D"/>
<path d="M126.68 93.2694V94.6694H134.67C134.48 95.4894 134.33 96.2194 134.18 96.9594H123.73V87.4395H134.03C134.18 88.0795 134.33 88.7695 134.52 89.5395H126.7V91.0994H134.15C134.02 91.7594 133.95 92.3495 133.76 92.8995C133.69 93.0895 133.34 93.2694 133.12 93.2694C131.27 93.2994 129.4 93.2895 127.55 93.2895H126.67V93.2694H126.68Z" fill="#D7B56D"/>
<path d="M83.6191 87.3906H92.8191C93.9591 87.3906 94.4891 87.8106 94.7691 88.9506C95.2891 91.0906 94.2991 92.8906 92.2591 93.7006C91.0991 94.1506 89.8991 94.3706 88.6791 94.3406H86.5591V96.9306H83.6191V87.3906ZM91.8791 89.7206H86.5791V92.0306C88.0091 91.9806 89.3891 92.2306 90.7191 91.6406C91.7291 91.1906 92.0991 90.6506 91.8791 89.7206Z" fill="#D7B56D"/>
<path d="M106.871 87.4199H109.731C109.731 87.6599 109.761 87.8899 109.761 88.1299C109.731 89.8099 109.691 91.4799 109.631 93.1599C109.561 94.6599 108.201 96.3699 106.651 96.8299C104.711 97.3899 102.781 97.4399 100.881 96.6399C99.4206 96.0199 98.4706 94.9199 98.3606 93.3899C98.2106 91.4399 98.3306 89.4699 98.3306 87.4499H101.121C101.121 87.6699 101.151 87.8999 101.151 88.1399C101.151 89.3999 101.131 90.6599 101.151 91.9299C101.201 94.3999 102.651 95.1099 104.701 94.7899C106.201 94.5699 106.751 93.4399 106.801 91.8999C106.851 90.4899 106.801 89.0699 106.821 87.6399C106.821 87.5899 106.841 87.5599 106.871 87.4199Z" fill="#D7B56D"/>
<path d="M35.3691 151.88V142.05C35.5691 142.03 35.7591 142 35.9591 142C37.5091 142.03 39.0391 142.07 40.5891 142.13C42.0391 142.2 42.6791 142.9 42.6891 144.35C42.6891 145.16 42.7191 145.95 41.8791 146.49C43.4791 147.5 43.1891 149 42.9091 150.44C42.6891 151.52 41.7291 151.79 40.8191 151.84C39.0391 151.92 37.2391 151.86 35.3691 151.86V151.88ZM36.7491 147.06V151.05C37.8791 151.05 38.9491 151.1 40.0091 151.05C40.8891 151 41.3391 150.49 41.4191 149.62C41.4491 149.3 41.4491 148.95 41.4191 148.63C41.3391 147.79 41.0291 147.38 40.1891 147.27C39.0591 147.14 37.9191 147.14 36.7391 147.08V147.06H36.7491ZM36.7491 146.26H39.3191C41.1391 146.23 41.2691 145.28 40.9191 143.79C40.8491 143.47 40.3791 143.07 40.0591 143.03C38.9691 142.93 37.8691 143 36.7391 143V146.26H36.7491Z" fill="#D7B56D"/>
<path d="M62.8802 146.99C62.8802 146.99 62.8502 148.57 62.7502 149.35C62.5302 150.8 61.8102 151.52 60.3902 151.91C59.1102 152.25 57.8302 152.21 56.5502 151.99C55.1202 151.75 54.1402 150.86 54.0102 149.43C53.8602 147.8 53.8802 146.15 54.0402 144.52C54.2102 142.89 55.4002 142.03 56.9802 141.93C58.1902 141.85 59.4402 141.98 60.6502 142.17C61.9602 142.37 62.5302 143.38 62.7402 144.58C62.8702 145.37 62.8902 147 62.8902 147.02L62.8702 147L62.8802 146.99ZM61.2502 147C61.2502 146.5 61.2802 145.97 61.2502 145.47C61.1502 144.41 60.9802 143.32 59.7702 142.95C59.1502 142.76 58.4702 142.71 57.8302 142.75C56.6502 142.8 55.8602 143.42 55.6602 144.62C55.3702 146.34 55.3202 148.07 55.7802 149.77C55.9702 150.48 56.4902 151.03 57.2402 151.12C58.0102 151.2 58.8402 151.22 59.6102 151.12C60.3202 151.02 60.8602 150.53 60.9902 149.79C61.1602 148.86 61.2602 148.01 61.2802 147.01H61.2502V147Z" fill="#D7B56D"/>
<path d="M161.441 146.891C161.441 146.891 161.411 148.471 161.311 149.251C161.091 150.701 160.371 151.421 158.951 151.811C157.671 152.151 156.391 152.111 155.111 151.891C153.681 151.651 152.701 150.761 152.571 149.331C152.421 147.701 152.441 146.051 152.601 144.421C152.771 142.791 153.961 141.931 155.541 141.831C156.751 141.751 158.001 141.881 159.211 142.071C160.521 142.271 161.091 143.281 161.301 144.481C161.431 145.271 161.451 146.901 161.451 146.921L161.431 146.901L161.441 146.891ZM159.811 146.891C159.811 146.391 159.841 145.861 159.811 145.361C159.711 144.301 159.541 143.211 158.331 142.841C157.711 142.651 157.031 142.601 156.391 142.641C155.211 142.691 154.421 143.311 154.221 144.511C153.931 146.231 153.881 147.961 154.341 149.661C154.531 150.371 155.051 150.921 155.801 151.011C156.571 151.091 157.401 151.111 158.171 151.011C158.881 150.911 159.421 150.421 159.551 149.681C159.721 148.751 159.821 147.901 159.841 146.901H159.811V146.891Z" fill="#D7B56D"/>
<path d="M218.251 144.83C217.831 144.83 217.431 144.86 217.001 144.83C216.851 144.81 216.601 144.64 216.581 144.51C216.411 143.35 215.641 142.88 214.59 142.76C213.51 142.64 212.351 142.54 211.631 143.55C211.261 144.05 211.061 144.8 211.021 145.43C210.971 146.71 211.021 147.99 211.141 149.25C211.271 150.61 212.021 151.19 213.411 151.17C214.001 151.17 214.621 151.17 215.161 151.02C215.551 150.9 216.041 150.55 216.171 150.2C216.471 149.32 216.571 148.4 216.781 147.39H213.781V146.58H218.241C218.371 147.94 218.321 149.29 217.751 150.52C217.381 151.33 216.62 151.8 215.73 151.97C214.3 152.24 212.871 152.24 211.441 151.84C210.311 151.52 209.611 150.7 209.521 149.65C209.371 147.92 209.351 146.13 209.521 144.4C209.651 142.94 210.951 141.98 212.571 141.91C213.651 141.86 214.721 141.91 215.801 142.04C217.181 142.21 218.221 143.44 218.221 144.85L218.241 144.83H218.251Z" fill="#D7B56D"/>
<path d="M44.2891 149.06C44.5791 149.06 44.8091 149.08 45.0491 149.06C45.5391 149.01 45.7691 149.14 45.8891 149.7C46.1091 150.73 46.8291 151.23 47.9091 151.18C48.6791 151.15 49.5091 151.13 50.2291 150.88C51.2191 150.54 51.3091 149.21 50.3791 148.71C49.4691 148.22 48.4591 147.9 47.4891 147.52C46.9191 147.3 46.3491 147.08 45.7891 146.85C44.5991 146.36 44.3091 145.69 44.3791 144.33C44.4491 143.15 45.0191 142.31 46.2091 142.16C47.6091 141.97 49.0491 141.96 50.4491 142.13C51.4391 142.23 52.0491 143.06 52.3191 144.05C52.3891 144.3 52.4391 144.55 52.5091 144.86H51.0791C50.7791 144.34 50.5791 143.73 50.1691 143.33C49.4291 142.57 47.4891 142.61 46.5691 143.14C45.7091 143.63 45.8091 145.13 46.7191 145.51C47.6491 145.91 48.5891 146.22 49.5291 146.59C50.1891 146.84 50.8291 147.13 51.4691 147.38C52.0091 147.6 52.3491 147.97 52.4491 148.54C52.7891 150.53 52.3991 151.84 49.9091 152.11C48.6991 152.24 47.4991 152.23 46.3291 151.96C45.1491 151.69 44.2591 150.43 44.3291 149.13L44.3091 149.08L44.2891 149.06Z" fill="#D7B56D"/>
<path d="M104.749 149.06C105.039 149.06 105.269 149.08 105.509 149.06C105.999 149.01 106.229 149.16 106.349 149.7C106.569 150.73 107.279 151.21 108.369 151.18C109.129 151.15 109.879 151.06 110.619 150.91C111.189 150.79 111.379 150.29 111.439 149.77C111.509 149.27 111.269 148.86 110.799 148.66C109.859 148.27 108.919 147.9 107.959 147.52C107.369 147.28 106.769 147.08 106.189 146.81C104.999 146.24 104.589 145.4 104.809 144.05C104.979 143.01 105.769 142.13 106.859 142.03C108.069 141.93 109.319 141.93 110.529 142.03C111.619 142.11 112.379 142.79 112.679 143.86C112.759 144.15 112.849 144.43 112.929 144.79H111.519C111.179 144.25 110.949 143.66 110.529 143.23C109.819 142.49 107.869 142.56 106.979 143.08C106.419 143.38 106.389 143.96 106.419 144.54C106.439 145.03 106.669 145.31 107.109 145.48C108.169 145.87 109.229 146.27 110.289 146.66C110.739 146.83 111.199 147 111.619 147.2C112.949 147.86 113.419 149.56 112.659 150.85C112.239 151.56 111.549 151.88 110.809 151.99C109.449 152.19 108.069 152.26 106.699 151.89C105.539 151.57 104.629 150.34 104.699 149.06H104.729H104.749Z" fill="#D7B56D"/>
<path d="M10.4202 142.11C11.7002 141.61 12.0902 142.72 12.6702 143.32C13.5602 144.23 14.3502 145.24 15.1902 146.2C15.8502 146.96 16.5202 147.71 17.1902 148.47C17.3202 148.62 17.5102 148.76 17.7802 148.99V142.07H18.7202V151.81C18.1802 152.06 17.8302 151.81 17.5102 151.42C16.7402 150.49 15.9502 149.59 15.1502 148.68C14.0902 147.47 13.0302 146.27 11.9502 145.08C11.7602 144.88 11.5502 144.69 11.2302 144.39V151.86C10.9302 151.86 10.6902 151.89 10.4102 151.89V142.1L10.4202 142.11Z" fill="#D7B56D"/>
<path d="M200.789 144.549V151.819H199.859V142.109C200.919 141.639 201.439 142.399 202.009 143.039C202.849 143.979 203.679 144.979 204.519 145.919C205.239 146.739 205.979 147.569 206.719 148.379C206.869 148.549 207.059 148.699 207.359 148.969V142.039C207.659 142.039 207.899 142.009 208.179 142.009V151.819C207.369 152.109 207.089 151.399 206.719 150.999C205.439 149.599 204.209 148.169 202.969 146.739C202.309 145.979 201.639 145.229 200.979 144.489C200.929 144.519 200.859 144.539 200.809 144.569H200.779L200.789 144.549Z" fill="#D7B56D"/>
<path d="M111.779 96.9597C111.909 96.3397 111.999 95.7297 112.169 95.1397C112.239 94.9497 112.539 94.7397 112.759 94.6997C113.519 94.6197 114.289 94.5997 115.069 94.5497C115.959 94.4797 116.649 93.7397 116.649 92.8497V87.4297H119.579C119.579 87.6497 119.609 87.8797 119.609 88.1197C119.609 89.6797 119.629 91.2697 119.609 92.8297C119.579 95.0197 118.419 96.6797 116.039 96.8297C114.789 96.9097 113.529 96.9297 112.289 96.9597C112.139 96.9597 111.989 96.9397 111.799 96.9297L111.779 96.9497V96.9597Z" fill="#D7B56D"/>
<path d="M145.34 147.379H140.66V151.029H146.4V151.839H139.15V142.049H146.27V142.979H140.65V146.529H145.34V147.389V147.379Z" fill="#D7B56D"/>
<path d="M74.3091 142.061C74.3091 143.841 74.2791 145.591 74.3091 147.341C74.3091 148.081 74.4291 148.821 74.5791 149.541C74.7991 150.601 75.5591 151.171 76.6491 151.191C77.2191 151.191 77.8091 151.261 78.3691 151.161C79.5591 150.961 80.0491 149.971 80.0991 148.501C80.1691 146.621 80.0991 144.731 80.0991 142.861V142.091H81.0791V143.201C81.0791 144.631 81.1091 146.081 81.0791 147.511C81.0591 148.251 80.9491 148.991 80.8291 149.711C80.6291 150.961 79.8691 151.631 78.6591 151.951C77.3791 152.291 76.1391 152.201 74.9091 151.871C73.7191 151.551 72.9691 150.621 72.8691 149.431C72.6791 146.991 72.6791 144.551 72.6191 142.061H74.3191H74.3091Z" fill="#D7B56D"/>
<path d="M91.4592 142.04H98.5792V142.97H92.8192V146.5H97.6492V147.36H92.8192V150.99H98.6892V151.83H91.4492V142.02V142.04H91.4592Z" fill="#D7B56D"/>
<path d="M0 151.869C0.71 150.219 1.36 148.659 2.02 147.089C2.63 145.639 3.25 144.199 3.87 142.749C4.06 142.329 4.21 141.959 4.85 141.979C5.47 141.979 5.57 142.379 5.74 142.769C6.67 144.859 7.56 146.929 8.47 149.009C8.87 149.919 9.26 150.839 9.66 151.769C8.4 152.069 8.21 151.989 7.72 150.889C7.52 150.439 7.35 149.949 7.1 149.529C6.98 149.329 6.68 149.129 6.46 149.109C5.18 149.079 3.89 149.079 2.61 149.109C2.41 149.109 2.14 149.309 2.05 149.499C1.73 150.119 1.46 150.779 1.23 151.439C1.01 152.029 0.57 151.879 0.02 151.879H0L0 151.869ZM2.57 148.219H6.49C5.83 146.769 5.19 145.409 4.57 144.029H4.35C3.76 145.389 3.17 146.769 2.57 148.199V148.219Z" fill="#D7B56D"/>
<path d="M120.971 151.82C121.641 150.26 122.281 148.72 122.941 147.21C123.551 145.78 124.131 144.35 124.771 142.94C124.961 142.54 124.971 142 125.681 142C126.221 142 126.451 142.2 126.641 142.67C127.501 144.69 128.411 146.71 129.281 148.73C129.721 149.74 130.161 150.77 130.591 151.79C129.281 152.11 129.141 152.04 128.671 150.9C128.471 150.4 128.231 149.89 127.981 149.42C127.901 149.27 127.641 149.13 127.481 149.13C126.151 149.11 124.821 149.1 123.511 149.13C123.321 149.13 123.061 149.32 122.971 149.48C122.681 150.05 122.411 150.62 122.231 151.23C122.041 151.9 121.661 152.02 120.971 151.84V151.82ZM125.421 143.77C124.751 145.33 124.161 146.73 123.521 148.2H127.441C126.771 146.74 126.141 145.36 125.421 143.77Z" fill="#D7B56D"/>
<path d="M24.8691 151.799C25.2191 150.959 25.5591 150.119 25.9091 149.279C26.8491 147.089 27.7791 144.899 28.7191 142.719C28.8891 142.319 29.0591 141.959 29.6491 141.979C30.1891 141.999 30.3091 142.269 30.4891 142.689C31.5191 145.099 32.5891 147.489 33.6691 149.889C33.9591 150.529 34.2291 151.169 34.5291 151.879C34.0891 151.879 33.7591 151.929 33.4491 151.859C33.2091 151.809 32.9291 151.639 32.8291 151.459C32.4791 150.819 32.2191 150.149 31.8891 149.509C31.7891 149.319 31.5191 149.119 31.3291 149.119C30.0491 149.089 28.7591 149.089 27.4791 149.119C27.2391 149.119 26.9191 149.369 26.8091 149.589C26.5191 150.129 26.2691 150.699 26.0991 151.269C25.8991 151.929 25.5091 151.989 24.8691 151.809V151.799ZM27.3991 148.199H31.3191C30.6291 146.699 30.0091 145.319 29.2991 143.769C28.6291 145.349 28.0391 146.749 27.4191 148.199H27.3991Z" fill="#D7B56D"/>
<path d="M170.58 142.059V142.949H164.83V146.769H169.51V147.729H164.82V151.799H163.34V142.039H170.59V142.059H170.58Z" fill="#D7B56D"/>
<path d="M187.34 142.089C187.47 142.039 187.49 142.019 187.51 142.019C188.81 141.949 188.84 141.939 189.34 143.079C190.3 145.179 191.21 147.319 192.15 149.439C192.22 149.569 192.3 149.689 192.47 149.979C192.82 149.159 193.13 148.449 193.41 147.739C194.17 145.919 194.89 144.109 195.7 142.299C195.8 142.059 196.27 142.009 196.58 141.859C196.63 141.929 196.7 141.979 196.75 142.049C196.46 142.759 196.19 143.479 195.91 144.189C194.92 146.599 193.92 148.999 192.9 151.389C192.8 151.609 192.48 151.789 192.23 151.839C191.86 151.939 191.51 151.869 191.32 151.419C190.61 149.719 189.89 148.039 189.17 146.349C188.56 144.939 187.96 143.509 187.34 142.059L187.36 142.079L187.34 142.089Z" fill="#D7B56D"/>
<path d="M81.8809 142.039H90.3109V142.969H86.8109V151.819H85.3109V142.989H81.8809V142.029V142.049V142.039Z" fill="#D7B56D"/>
<path d="M122.079 142.979H118.559V151.829H117.059V143.009H113.609V142.049H122.069V142.979H122.079Z" fill="#D7B56D"/>
<path d="M133.12 151.829V143.009H129.57V142.049H138.02V142.979H134.5V151.829H133.12Z" fill="#D7B56D"/>
<path d="M178.029 151.04H183.999V151.85H176.609V142.07H178.019V151.06V151.04H178.029Z" fill="#D7B56D"/>
<path d="M65.9091 151.061H71.8691V151.851H64.6191V142.061H65.9191V151.061H65.9091Z" fill="#D7B56D"/>
<path d="M198.871 151.851H197.471V142.061H198.871V151.851Z" fill="#D7B56D"/>
<path d="M186.25 151.851H184.99V142.061H186.25V151.851Z" fill="#D7B56D"/>
</g>
<defs>
<clipPath id="clip0_2_500">
<rect width="218.31" height="152.17" fill="white"/>
</clipPath>
</defs>
</svg>
